<?xml version="1.0" encoding="UTF-8"?>
<svg id="Layer_1" data-name="Layer 1" xmlns="http://www.w3.org/2000/svg" viewBox="0 0 216.78 176.56">
  <defs>
    <style>
      .cls-1 {
        fill: none;
      }

      .cls-1, .cls-2, .cls-3 {
        stroke: #434b54;
        stroke-miterlimit: 10;
      }

      .cls-1, .cls-3 {
        stroke-linecap: round;
        stroke-width: 3px;
      }

      .cls-2 {
        fill: #434b54;
        stroke-width: 2px;
      }

      .cls-3 {
        fill: #d4aca9;
      }
    </style>
  </defs>
  <path class="cls-1" d="M78.76,86.04s-6.72-.95-11.27-1.17c-1.18-.06-2.33.22-3.38.77-1.33.7-3.57,1.67-6.38,2.09-.44.07-.89.08-1.33.08-1.96-.02-7.84-.03-10.75.45-.72.12-1.4.41-2,.82-2.28,1.58-9.58,6.48-14.53,8.04-.99.31-1.88.88-2.61,1.61-2.88,2.86-9.7,10.04-12.35,16.34-.39.94-.6,1.94-.65,2.95-.12,2.67-.18,8.41,1.17,11.22.35.74.51,1.55.5,2.37-.01,3.31-.04,11.03-.05,13.51,0,.55.12,1.08.35,1.58,1.54,3.33,8.32,16.28,24.02,24.46.6.31,1.28.44,1.95.37.9-.09,2.21-.24,3.28-.45.58-.12,1.12-.37,1.6-.73,1.41-1.04,4.62-3.49,6.41-5.39,1.07-1.13,2.27-2.12,3.62-2.88,2.52-1.41,6.32-3.79,8.48-5.2,1.16-.76,2.5-1.19,3.88-1.25l9.4.1"/>
  <path class="cls-1" d="M34.46,91.02s-16.42-9.66-27.21-5.49c-1.76.68-7.93,2.74-4.94,7.3.66,1.01,1.59,1.81,2.64,2.41l4.16,2.37c.97.55,1.61,1.55,1.72,2.66l.22,2.3c.15,1.58,1.05,3,2.45,3.75,1.28.69,3.1,1.26,5.42,1.01"/>
  <path class="cls-1" d="M47.1,169.77s2.39,4.67,7.46,4.61c1.23-.01,2.47-.04,3.69.07l6.69.6c2.03-.07,3.97-.89,5.39-2.33,1.86-1.88,4.74-5.57,7.88-6.64,4.69-1.6,29.43-8.89,39.35-9.7,2.14-.18,4.25-.63,6.24-1.44,4.11-1.66,10.86-4.22,14.31-4.56,0,0,20.5-.14,21.45-7.22,0,0,6.59-16.97,5.06-20.41,0,0-1.56-12.04-4.8-17.23-1.29-2.06-3.9-2.86-6.16-1.97-3.36,1.32-9.35,4.14-13.5,4.58"/>
  <path class="cls-1" d="M162.05,144.44s2.43-.19,3,0,6.96,5.94,9.32,5.36,11.36.38,11.36.38c0,0,8.87,4.34,12.64,0s7.79-11.49,7.98-14.49,3-12.77,3-12.77l-.7-7.28s-24.2,7.09-43.79,7.6"/>
  <path class="cls-1" d="M146.65,106.37s-4.32-15.16-3.29-17.46c.26-.57.67-1.16,1.15-1.73,1.62-1.91,3.77-3.3,6.13-4.13,6.43-2.27,23.93-8.22,46.89-8.62,2.63-.05,4.94,1.52,6.13,3.85,4.01,7.85,9.23,29.85,4.99,37.37"/>
  <polyline class="cls-1" points="143.2 92.1 176.53 102.31 204.37 80.49"/>
  <path class="cls-3" d="M175.87,95.3c.06.09.19.1.23,0,.4-.78,1.89-3.36,4.14-2.84,2.51.57,8.67,6.07-.44,13.44-1.04.84-2.43,1.1-3.7.66-3.73-1.3-11.06-4.69-7.56-10.52.8-1.34,2.17-2.29,3.73-2.41,1.24-.1,2.68.19,3.6,1.67Z"/>
  <path class="cls-1" d="M196.59,43.59s4.34,3.19,4.72,5.87.89,6.41,1.09,7.02c.35,1.12,2.18,5.96,2.23,9.26.02,1.17.56,2.25,1.47,2.99,2.05,1.65,5.3,4.75,6.07,8.44,1.15,5.49-4.4,13.21-4.4,13.21"/>
  <path class="cls-1" d="M204.16,61.84s13.84-8.84,10.64-20.38c-.17-.63-.36-1.34-.89-1.71-2.44-1.72-8.71-10.96-8.7-16.28,0-1.13-.82-2.09-1.73-2.75-2.69-1.96-8.01-6.29-13.56-6.95-1.02-.12-1.97-.54-2.71-1.25-2.27-2.18-8.38-5.39-14.87-3.94"/>
  <path class="cls-1" d="M167.48,9s-3.23-7.74-12.43-7.49c0,0-2.52.76-6.84,5.27-1.21,1.27-3.02,1.75-4.7,1.23-2.28-.72-5.31-2.48-8.78-3.02-.87-.13-1.76.02-2.54.44-1.34.71-3.95,2.18-6.31,4.45-.51.49-1.18.79-1.89.79h-8.35c-.96,0-1.88.4-2.52,1.13-.97,1.11-3.64,2.82-5.6,2.66"/>
  <path class="cls-1" d="M102.5,15.63s-7.07-2.78-10.69-1.67c-.76.23-1.52.41-2.31.52-3.26.46-10.68,1.35-15.34.63-1.45-.22-2.92-.11-4.29.41-2.4.93-6.02,2.48-7.91,4.06-.83.69-1.77,1.23-2.81,1.52-2.11.59-4.37,1.18-6.32,2.21-1.17.62-2.18,1.51-3.02,2.54-3.2,3.98-11.52,16.5-.48,28.37.43.46.83.93,1.19,1.45,1.57,2.31,6.65,9.01,11.03,12.58,1.51,1.23,3.42,1.87,5.37,1.8,7.47-.24,28.7-1.85,31.11-12.56"/>
  <path class="cls-1" d="M91.48,70.27l-.51,5.13c-.05.52-.32.99-.75,1.29-1.98,1.37-7.29,6.27.15,15.7,0,0,11.19,10.7,22.19,9.16"/>
  <path class="cls-2" d="M145.14,58.14c-1.41,0-2.7,1.88-3.02,3.49-.58,2.87,1.58,6.22,3.4,6.13,1.4-.07,2.54-2.16,2.77-3.83.36-2.65-1.33-5.77-3.15-5.79Z"/>
  <path class="cls-2" d="M161.73,66.74c.62-1.03,4.23-.57,4.6.76.25.89-.89,2.46-2.3,2.48-1.76.02-2.79-2.41-2.3-3.23Z"/>
  <path class="cls-2" d="M172.97,57.72c-1.41.17-2.37,2.27-2.51,3.87-.22,2.57,1.54,5.55,3.32,5.49,1.5-.05,2.82-2.23,2.93-4.13.15-2.64-1.99-5.45-3.74-5.23Z"/>
</svg>