<?xml version="1.0" encoding="UTF-8"?>
<svg id="Layer_1" data-name="Layer 1" xmlns="http://www.w3.org/2000/svg" viewBox="0 0 500 500">
  <defs>
    <style>
      .cls-1 {
        fill: none;
        stroke-width: 9.74px;
      }

      .cls-1, .cls-2 {
        stroke: #434b54;
        stroke-linecap: round;
        stroke-miterlimit: 10;
      }

      .cls-2 {
        fill: #434b54;
        stroke-width: 2.38px;
      }

      .cls-3 {
        fill: #eed7bf;
      }
    </style>
  </defs>
  <rect class="cls-3" width="500" height="500"/>
  <g>
    <g>
      <path class="cls-1" d="M42.62,431.36s77.24-3.92,82.83,0c5.6,3.92,101.86-1.74,101.86-1.74"/>
      <path class="cls-1" d="M271.59,379.25s-54.7,28.85-35.11,56.27c19.59,27.42,62.07,4.98,62.07,4.98"/>
      <path class="cls-1" d="M326.18,431.18s33.84-7.15,43.35-6.03,59.42,8.34,72.85,8.34"/>
      <path class="cls-1" d="M348.27,384.85s20.22,41.37,8.43,41.12"/>
      <path class="cls-1" d="M42.5,333.93c1.43-17.87,13.77-36.52,28.1-35.37s28.62,21.93,27.19,39.8-14.21,31.43-28.54,30.28c-14.33-1.15-28.19-16.84-26.76-34.71Z"/>
      <path class="cls-1" d="M126.07,418.43s-43.48-47.47-41.05-54.8"/>
      <path class="cls-1" d="M330.16,378.36c3.3-2.14,9.76-5.07,17.14-6.49,11.9-2.29,15.95-.53,23-4.78,4.97-3,3.45-3.29,11.92-11.67,5.99-5.93,7.4-5.19,10.63-9.51,1.77-2.37,5.12-9.81,3.68-18.87-1.64-10.31-6.57-18.14-7.88-18.86"/>
      <path class="cls-1" d="M350.64,252.5c.1,1.61,2.27,28.29,26.05,41,12.23,6.54,26.73,6.57,43.72,1.36,2.61-.8,10.42-4.53,17.89-23.78,6.56-16.91,7.7-12.91,8.38-18.57,1.33-11.06-2.75-20.13-4.53-23.56-5.69-10.92-14.54-16.61-18.57-19.25-13.74-9.03-17.44-39.64-56.4-44.85"/>
      <path class="cls-1" d="M127.79,225.92c-6.06,12.98-9.66,21.52-10.23,29.15-.9,12.01,1.9,13.21-2.05,21.99-4.6,10.23-11.64,7.88-14.83,16.11-6.22,16.05,16.01,40.62,17.39,41.94,15.17,14.54,34.79,18.61,42.45,19.18"/>
      <line class="cls-1" x1="95.38" y1="322.46" x2="105.5" y2="317.87"/>
      <path class="cls-1" d="M103.24,265.81c-4.2-1.79-18.72-7.12-23.53-21.99-5.37-16.62-1.79-35.96,8.44-45.78,5.93-5.69,8.11-2.8,18.71-9.75,11.12-7.28,8.52-11.7,17.23-19.21,8.12-7,15.97-18.36,36.43-19.9"/>
      <path class="cls-1" d="M187.12,143.83c17.87-23.27,30.79-27.46,39.64-26.34,10.22,1.29,11.37,9.18,25.57,13.17,18.58,5.21,24.35-6.12,40.41-.04,13.21,5.01,15.86,2.21,26.34,15.77,3.41,4.41,11.6-.22,17.39,4.09,3.06,2.28,4.85,5.12,5.88,7.16"/>
      <path class="cls-1" d="M361.78,150.99c.48-3.87-.79-13.84,6.39-16.37,9.46-3.32,27.67-2.93,30.94-11.51,6.14-16.11-.32-13.3-8.44-27.36-7.84-13.57-.65-18.25-4.09-26.85-7.73-19.31-45.71-32.26-66.75-23.53-10.84,4.5-8.71,11.98-25.06,16.37-8.63,2.31-21.38,3.7-24.81,7.93-13.04,16.11,4.09,29.66,1.79,33.5-3.8,6.33-8.28,15.17-23.78,24.29"/>
      <line class="cls-1" x1="310.12" y1="107" x2="294.45" y2="131.24"/>
      <line class="cls-1" x1="333.65" y1="123.37" x2="322.14" y2="139.22"/>
    </g>
    <ellipse class="cls-2" cx="214" cy="264.8" rx="7.72" ry="11.06"/>
    <ellipse class="cls-2" cx="286.73" cy="273.78" rx="7.72" ry="11.06"/>
    <path class="cls-2" d="M239.09,277.61c1.21-1.75,3.85-2.02,5.55-1.74,2.64.42,5.74,2.59,5.73,5.77,0,3.48-3.75,6.11-6.71,5.73-4.1-.53-6.6-6.83-4.56-9.75Z"/>
  </g>
</svg>