<?xml version="1.0" encoding="UTF-8"?>
<svg id="Layer_1" data-name="Layer 1" xmlns="http://www.w3.org/2000/svg" viewBox="0 0 200.96 188.33">
  <defs>
    <style>
      .cls-1 {
        fill: #d4aca9;
        stroke-width: 4px;
      }

      .cls-1, .cls-2 {
        stroke: #434b54;
        stroke-miterlimit: 10;
      }

      .cls-2 {
        fill: none;
        stroke-linecap: round;
        stroke-width: 3px;
      }

      .cls-3 {
        fill: #434b54;
      }

      .cls-4 {
        fill: #d5bab0;
      }
    </style>
  </defs>
  <path class="cls-2" d="M152.67,124.83s5.61,5.3,7.28,20.34c.02.21.27.33.44.19,1.39-1.13,6.85-4.21,9.78,2.98.25.6.4,1.24.44,1.89.34,4.95,1.14,28.99-14.78,32.62-.4.09-.81.12-1.22.11-4.06-.1-27.17-.64-35.54.02-9.19.72-39.19-.55-39.19-.55"/>
  <path class="cls-2" d="M128.35,121.83c-12.7-.47-24.91,5.46-27.57,10.55-3.21,6.13.74,11.46,1.11,11.83,5.72,5.67,14.63,9.27,22.55,8"/>
  <path class="cls-2" d="M80.52,162.26c1.27,14.79-5.02,25.47-17.28,24.51-10.36-.81-20.86-11.57-21.53-24.34-.85-16.08,7.92-23.76,18.81-23.15,11.38.64,18.72,8.09,20,22.98Z"/>
  <path class="cls-2" d="M143.35,121.8c1.58.56,3.77,1.02,5.55,0,1.3-.75,1.39-1.72,2.74-2.53,1.89-1.13,3.59-.35,5.87-.32,2.98.04,3.21,1.07,7.28-1.4,3.74-2.28,4.88-3.22,6.64-6.57,1.96-3.72,5.04-4.82,5.23-9.51s-3.04-9.81-4.02-11.04"/>
  <path class="cls-1" d="M24.84,81.89c1.22-1.39,4.76-4.59,11.17-3.96,1.18.12,2.32.53,3.31,1.19,3.85,2.53,12.73,10.25,4.87,23.9-.68,1.18-1.5,2.28-2.44,3.27-2.51,2.64-8.03,7.47-15.52,8.28-1.23.13-2.47,0-3.66-.3-3.43-.89-10.96-3.29-15.42-8.15-.89-.97-1.6-2.08-2.19-3.26-1.88-3.74-5.52-12.9-.09-19.58,0,0,4.44-5.52,10.99-4.76,0,0,5.17,0,8.03,3.37.25.3.71.28.96-.01Z"/>
  <path class="cls-2" d="M31.84,114.6s12.39,25.06,20.96,25.8"/>
  <path class="cls-2" d="M45.84,102.89s10.43,7.19,21.83,9.49"/>
  <path class="cls-2" d="M42.42,80.17s.17-.1,1.73-1.01,2.6-2.66,2.59-4.53c-.05-5.74.41-18.33,5.36-21.65"/>
  <path class="cls-2" d="M40.07,71.09s-15.65-5.34-9.33-29.22c.38-1.42,1.45-2.56,2.85-3.03,2.65-.89,7.05-2.53,9.23-4.24,2.02-1.59,3.28-3.78,3.94-5.2.45-.98,1.15-1.81,2.02-2.43,1.9-1.36,5.25-3.91,7.51-6.49.73-.83,1.63-1.5,2.66-1.92,1.87-.76,5.05-1.7,9.03-1.38"/>
  <path class="cls-2" d="M154.58,64.45s3.19,21.19,17.49,20.23c0,0,8.86.11,13.66-.58.53-.08,1.04-.21,1.54-.42,1.56-.64,4.96-2.3,4.92-4.56,0,0,1.49-6.36,5.32-9.87,1.32-1.21,2-2.96,1.96-4.75-.09-4.39-.88-11.69-5.05-13.41-.81-.33-1.57-.77-2.15-1.42-2.52-2.81-8.99-10.26-10.36-13.95-.34-.92-.82-1.78-1.51-2.48-2.69-2.73-9.53-8.51-18.72-8.07"/>
  <path class="cls-2" d="M151.52,20.53s-.38-3.83-2.62-3.77c-1.6.05-5.39-.82-7.41-1.32-.84-.21-1.6-.64-2.22-1.25-1.81-1.79-5.95-5.6-8.68-5.79-3.22-.23-7.91-1.1-13.53.26-1.13.27-4.18,1.23-5.75.37-2.83-1.54-6.66-6.29-10.79-7.4-6.62-1.78-21.45,14.11-21.45,14.11"/>
  <path class="cls-3" d="M92.01,64.64c-1.99-.08-3.7,2.39-4.17,4.43-.59,2.56.4,6.11,2.64,6.64,2.18.52,4.79-1.98,5.28-4.62.53-2.9-1.44-6.36-3.74-6.45Z"/>
  <path class="cls-3" d="M124.86,68.21c-2.34-.27-4.73,2.59-4.85,5.36-.12,2.64,1.79,5.7,4.17,5.7,2.16,0,3.82-2.51,4.17-4.6.45-2.73-1.1-6.19-3.49-6.47Z"/>
  <path class="cls-3" d="M102.56,76.01c1.27-1.38,5.77-.69,6.38,1.09.54,1.56-1.84,4.08-4,3.79-2.28-.3-3.55-3.62-2.38-4.89Z"/>
  <path class="cls-3" d="M61.86,159.01c-4.9.53-8.38,6.81-7.12,12.01,1.03,4.23,5.33,8.33,9.96,7.45,4.23-.81,6.58-5.37,6.66-9.04.11-5.31-4.51-10.96-9.5-10.42Z"/>
  <path class="cls-3" d="M69.1,150.34c-1.15.05-2.09,1.55-2.34,2.76-.41,1.95.67,4.45,2.34,4.65,1.22.14,2.45-.98,2.89-2.13.86-2.29-1.2-5.35-2.89-5.27Z"/>
  <path class="cls-3" d="M62.13,148c-1.3.21-2.07,2.38-1.87,4.04.15,1.29.98,3.06,2.21,3.15,1.34.1,2.71-1.83,2.68-3.6-.03-1.89-1.68-3.81-3.02-3.6Z"/>
  <path class="cls-3" d="M54.6,149.4c-1.16.71-1.1,3.02,0,4.24.59.66,1.72,1.26,2.64.87,1.2-.52,1.56-2.56.77-3.87-.72-1.19-2.42-1.84-3.4-1.23Z"/>
  <path class="cls-3" d="M50.99,154.89c-1.15.62-1.19,2.88-.26,4.26.66.97,2.04,1.84,3.03,1.4,1.18-.52,1.47-2.78.58-4.21-.72-1.16-2.35-1.99-3.35-1.45Z"/>
  <path class="cls-2" d="M32.6,105.04s5.81-2.36,8.49-7.98"/>
  <ellipse class="cls-3" cx="28.36" cy="107.64" rx="3" ry="2.22" transform="translate(-47.09 25.79) rotate(-27.91)"/>
  <path class="cls-4" d="M33.45,84.26c-1.07.95-.49,3.55.55,5.15,1.56,2.38,5,3.82,6.38,2.68,1.09-.89.76-3.24,0-4.72-1.48-2.87-5.57-4.32-6.94-3.11Z"/>
</svg>